HIERARCHY
ROOT Hips
{
  OFFSET 0 0 0
  CHANNELS 6 Xposition Yposition Zposition Zrotation Yrotation Xrotation
  JOINT LeftThigh
  {
    OFFSET 8.409438 0 -5.917753
    CHANNELS 3 Zrotation Yrotation Xrotation
    JOINT LeftLeg
    {
      OFFSET 0 0 -42.358652
      CHANNELS 3 Zrotation Yrotation Xrotation
      JOINT LeftFoot
      {
        OFFSET 0 0 -39.357303
        CHANNELS 3 Zrotation Yrotation Xrotation
      }
    }
  }
  JOINT RightThigh
  {
    OFFSET -8.409438 0 -5.917753
    CHANNELS 3 Zrotation Yrotation Xrotation
    JOINT RightLeg
    {
      OFFSET 0 0 -42.358652
      CHANNELS 3 Zrotation Yrotation Xrotation
      JOINT RightFoot
      {
        OFFSET 0 0 -39.357303
        CHANNELS 3 Zrotation Yrotation Xrotation
      }
    }
  }
  JOINT SpineLow
  {
    OFFSET 0 0 4.719101
    CHANNELS 3 Zrotation Yrotation Xrotation
    JOINT SpineMid
    {
      OFFSET 0 0 12.899191
      CHANNELS 3 Zrotation Yrotation Xrotation
      JOINT Chest
      {
        OFFSET 0 0 12.899191
        CHANNELS 3 Zrotation Yrotation Xrotation
        JOINT LeftShoulder
        {
          OFFSET 7.550562 1.41573 9.438202
          CHANNELS 3 Zrotation Yrotation Xrotation
          JOINT LeftArm
          {
            OFFSET 9.155056 0 4.247191
            CHANNELS 3 Zrotation Yrotation Xrotation
            JOINT LeftForearm
            {
              OFFSET 0 0 25.771955
              CHANNELS 3 Zrotation Yrotation Xrotation
              JOINT LeftHand
              {
                OFFSET 0 0 25.197169
                CHANNELS 3 Zrotation Yrotation Xrotation
              }
            }
          }
        }
        JOINT RightShoulder
        {
          OFFSET -7.550562 1.41573 9.438202
          CHANNELS 3 Zrotation Yrotation Xrotation
          JOINT RightArm
          {
            OFFSET -9.155056 0 4.247191
            CHANNELS 3 Zrotation Yrotation Xrotation
            JOINT RightForearm
            {
              OFFSET 0 0 -25.771955
              CHANNELS 3 Zrotation Yrotation Xrotation
              JOINT RightHand
              {
                OFFSET 0 0 -25.197169
                CHANNELS 3 Zrotation Yrotation Xrotation
              }
            }
          }
        }
        JOINT Neck
        {
          OFFSET 0 0 15.101124
          CHANNELS 3 Zrotation Yrotation Xrotation
          JOINT Head
          {
            OFFSET 0 0 11.325843
            CHANNELS 3 Zrotation Yrotation Xrotation
            End Site
            {
              OFFSET 0 0 14.157303
            }
          }
        }
      }
    }
  }
}
MOTION
Frames: 17
Frame Time: 0.0
0.0  101.685394  0.0  0.372513  -29.565337  -105.656874  25.335472  -19.596608  11.782574  3.349148  4.855601  30.486575  13.418898  5.960204  6.145046  8.704232  8.666007  -3.802692  5.084841  8.803979  22.705737  12.953529  4.027344  -3.084347  -3.894658  -0.85809  3.148854  -10.739146  -1.82823  8.72152  -10.739146  -1.82823  8.721519  14.649632  42.001018  12.940504  -113.980246  50.627425  -99.570213  -9.227411  -24.692767  129.596787  113.669469  26.356731  -23.332482  7.47034  2.851964  10.509939  75.899311  24.079689  27.192734  -61.262467  20.54839  -82.379546  80.388844  23.359725  27.514864  22.01667  4.544635  -2.552577  16.523131  3.321694  -2.08078  
0.0  101.685394  0.0  0.37604  -29.980942  -105.464817  25.906178  -19.649321  11.369011  3.159694  4.938088  30.767481  13.456845  5.985713  6.127527  8.674873  8.561214  -4.15971  5.404931  8.855222  22.736534  12.961683  4.039635  -3.123546  -3.874654  -0.885491  3.172094  -10.688881  -1.901633  8.788987  -10.688881  -1.901633  8.788987  14.581141  42.17028  12.787524  -113.680615  50.485724  -99.32856  -9.365084  -24.940045  129.682412  113.757227  26.398083  -23.121197  7.640802  2.869058  10.518265  76.50227  25.144312  27.748471  -61.176509  20.862805  -82.344575  80.872428  23.015648  27.444513  22.133114  4.608124  -2.770495  16.612143  3.36106  -2.247579  
0.0  101.685394  0.0  0.283143  -30.132356  -105.121394  26.239005  -19.72147  10.834996  3.023929  5.029774  31.082318  13.184151  6.01161  5.943229  7.423914  8.627685  -5.029322  6.457683  8.715116  23.037304  12.942173  4.026651  -3.174507  -3.874032  -0.913114  3.185433  -10.691348  -1.974667  8.829937  -10.691348  -1.974667  8.829937  14.322065  42.251895  12.488311  -113.29191  50.469078  -99.00443  -9.587681  -24.990474  129.841227  113.759427  26.342823  -22.949818  7.603636  2.771887  10.479348  77.363978  26.169179  28.423303  -61.64775  20.876715  -82.500381  80.97506  22.870488  26.538064  22.140872  4.606242  -3.045815  16.620118  3.349642  -2.454272  
0.0  101.685394  0.0  0.309463  -30.378806  -104.909865  26.72208  -19.746533  10.344196  2.89085  5.126405  31.459437  12.918973  6.077952  5.738629  7.09097  8.498537  -5.48553  6.760813  8.872021  23.216029  13.088463  4.057017  -3.19711  -3.860086  -0.928208  3.208577  -10.65598  -2.013843  8.895199  -10.65598  -2.013843  8.8952  14.15515  42.354418  12.193601  -112.892488  50.414276  -98.667197  -9.773722  -24.885612  130.11504  113.701816  26.216179  -22.74776  7.777105  2.863336  10.581796  78.109075  27.227775  28.948701  -61.441349  20.89195  -82.550781  80.775435  22.963989  26.040733  22.296611  4.705598  -3.259285  16.738679  3.415789  -2.619372  
0.0  101.685394  0.0  0.182461  -30.09087  -104.459345  26.699348  -19.722121  9.692572  3.055288  5.208566  32.055478  12.474607  6.101303  5.389034  6.155134  8.365695  -6.166009  6.850071  9.117741  23.456597  13.280776  4.085008  -3.207714  -3.910388  -0.948946  3.20535  -10.796067  -2.063937  8.891132  -10.796067  -2.063937  8.891131  13.937491  42.348416  11.852485  -112.498044  50.429119  -98.329834  -10.010737  -24.668278  130.455178  113.62494  26.046978  -22.454214  8.002068  2.792458  10.569668  78.951956  28.127737  29.696059  -61.234445  20.684968  -82.749247  80.502389  22.959207  25.545603  22.22604  4.649725  -3.557318  16.688079  3.363323  -2.840534  
0.0  101.685394  0.0  0.203575  -30.343982  -104.137539  27.195558  -19.810468  9.066533  2.910066  5.435906  32.448773  12.247685  6.157431  5.209345  5.925152  8.165929  -6.818745  7.089888  9.303898  23.845943  13.396695  4.141374  -3.198594  -3.875401  -0.964063  3.209688  -10.702858  -2.109083  8.904601  -10.702858  -2.109083  8.904601  13.74357  42.367566  11.536131  -112.044744  50.403571  -97.96901  -10.215825  -24.366549  130.809385  113.542325  25.85615  -22.082104  8.280433  2.785084  10.586078  79.975333  28.966983  30.573007  -61.042406  20.378692  -82.869636  80.178991  22.931953  25.179241  22.41884  4.770629  -3.750901  16.834408  3.446022  -2.991818  
0.0  101.685394  0.0  0.11021  -30.378799  -103.887455  27.495517  -20.03801  8.616373  2.947794  5.681768  32.903576  11.834626  6.09583  4.890138  5.606215  7.871531  -7.37901  6.920549  9.631786  24.305564  13.829399  4.22485  -3.171994  -3.883787  -0.982423  3.225483  -10.728759  -2.15529  8.950958  -10.728759  -2.15529  8.950958  13.851591  42.394547  11.36363  -111.640387  50.49472  -97.513014  -10.458734  -24.053851  131.137659  113.436123  25.523783  -21.635259  8.492898  2.731708  10.592188  81.393133  29.691541  31.653338  -60.872244  20.070439  -83.11994  79.838134  22.653271  25.025712  22.522229  4.777652  -3.967589  16.913707  3.442731  -3.155612  
0.0  101.685394  0.0  0.178269  -30.368095  -103.651393  27.503564  -19.941862  8.082981  2.971654  5.896868  33.299345  11.748481  6.07901  4.798027  5.460531  7.66917  -7.963153  7.033657  9.90131  24.930326  13.828391  4.267657  -3.166809  -3.8722  -0.983863  3.235357  -10.697611  -2.159183  8.977804  -10.697612  -2.159183  8.977804  13.68467  42.403071  11.029583  -111.172169  50.528429  -97.074616  -10.643242  -23.774283  131.463649  113.399607  25.427232  -21.265699  8.726892  2.786054  10.590855  82.806194  30.40129  32.685076  -60.764894  19.694998  -83.249117  79.596877  22.379654  24.727579  22.732049  4.906132  -4.169447  17.072991  3.530494  -3.313633  
0.0  101.685394  0.0  0.238148  -30.049934  -103.20959  27.186821  -19.596199  7.301923  3.010272  6.072988  33.732567  11.659933  6.05429  4.730873  5.131191  7.543864  -8.728991  6.866615  10.240224  25.613846  13.912561  4.351958  -3.160312  -3.918172  -0.974127  3.171901  -10.819986  -2.13685  8.80442  -10.819987  -2.13685  8.804421  14.049033  42.34867  11.087942  -110.832365  50.723249  -96.472812  -10.81953  -23.571765  131.646158  113.423432  25.42461  -20.994441  8.975284  2.733579  10.759382  84.514412  31.004292  33.924382  -60.65833  19.315452  -83.605538  79.177573  21.906794  24.38789  22.985322  4.906725  -4.25255  17.263547  3.526212  -3.378217  
0.0  101.685394  0.0  0.328229  -29.429611  -102.700543  26.694374  -19.123141  6.363476  2.984937  6.322973  34.263527  11.72233  5.991568  4.658355  4.605527  7.448521  -9.522544  6.81462  10.598282  26.327205  13.805306  4.433961  -3.135341  -3.964606  -0.965296  3.109561  -10.943827  -2.116966  8.634228  -10.943827  -2.116966  8.634228  13.888647  42.278276  10.815417  -110.45691  50.888776  -95.95426  -10.945446  -23.387471  131.858412  113.500028  25.492463  -20.81643  9.05461  2.716703  10.764514  86.244835  31.534938  35.206574  -60.50821  18.752765  -83.854841  78.893053  21.65611  23.658917  23.144188  4.970232  -4.383506  17.383922  3.567946  -3.480278  
0.0  101.685394  0.0  0.587579  -28.588022  -102.317789  26.180923  -18.578723  5.45214  2.980162  6.560555  34.936877  11.693473  5.950511  4.516017  3.943674  7.446247  -10.163735  6.820541  11.018084  26.992346  13.636154  4.537161  -3.106459  -4.035148  -0.922616  3.057509  -11.12919  -2.000422  8.486809  -11.12919  -2.000422  8.48681  13.836844  42.213939  10.4643  -110.246828  51.213329  -95.289301  -11.076831  -23.239013  131.947327  113.48154  25.20294  -20.677488  8.967343  2.567361  10.560277  88.241019  31.915757  36.729369  -60.333299  18.183333  -84.126261  78.813857  21.425924  22.741144  23.315159  5.032719  -4.566202  17.513843  3.606793  -3.621288  
0.0  101.685394  0.0  1.02586  -27.350408  -102.070937  25.559114  -17.966617  4.607243  2.936819  6.759968  35.64009  11.239579  5.929462  4.217198  3.064771  7.696738  -10.654218  6.849329  11.478372  27.593911  13.387063  4.651753  -3.107144  -4.140485  -0.837308  3.000501  -11.403961  -1.764714  8.318929  -11.403961  -1.764714  8.318929  13.621679  42.061962  9.985817  -110.075008  51.562552  -94.679328  -11.185667  -23.026777  132.065122  113.527738  25.33711  -20.547554  8.876033  2.503227  10.333974  90.038827  32.205992  38.096491  -60.099957  17.642314  -84.341891  79.156622  21.283301  21.704122  23.412629  5.02123  -4.772068  17.588668  3.589602  -3.776282  
0.0  101.685394  0.0  1.531688  -25.692364  -101.847731  24.955484  -17.350651  3.735096  2.718738  6.986997  36.274025  10.782695  5.948345  4.038829  2.303749  7.746295  -10.666368  6.562092  12.429758  27.847263  13.029867  4.770854  -3.145567  -4.284397  -0.726958  2.923797  -11.78095  -1.46018  8.092883  -11.780949  -1.46018  8.092883  14.048417  42.048209  9.852273  -110.252069  52.149764  -93.688693  -11.250041  -22.764912  132.110262  113.513807  25.443536  -20.32814  8.545423  2.434908  10.041738  91.863926  32.269537  39.470163  -59.934603  17.251511  -84.596933  79.951997  21.125758  20.486102  23.427781  4.920538  -4.994919  17.601603  3.505293  -3.939939  
0.0  101.685394  0.0  2.023606  -23.607419  -101.531448  24.333054  -16.773644  2.731403  2.122522  7.409399  36.734065  10.218084  5.855419  3.784065  0.630799  8.424962  -10.883707  6.823007  12.710073  28.034047  12.62787  4.939119  -3.189345  -4.453388  -0.607776  2.829471  -12.225948  -1.132876  7.816365  -12.225948  -1.132876  7.816365  13.656724  41.850075  9.291621  -110.275574  52.58723  -92.880367  -11.265879  -22.366057  132.075221  113.435145  25.454404  -19.883494  8.247443  2.486412  9.780998  93.203759  32.214138  40.559147  -59.887315  17.104009  -84.846575  81.047531  21.063666  19.091272  23.303133  4.732273  -5.312441  17.510078  3.352687  -4.170203  
0.0  101.685394  0.0  2.299439  -20.800736  -100.886065  23.518876  -16.285548  1.425693  1.127853  8.059248  37.056341  9.844686  5.712944  3.627356  -1.785967  8.686589  -11.072897  7.305844  13.26079  27.903619  12.37684  5.21926  -3.197803  -4.703754  -0.523726  2.700499  -12.898031  -0.899879  7.451534  -12.898031  -0.899879  7.451534  13.211889  41.762271  8.682046  -110.754773  52.52066  -92.80061  -10.962407  -21.958568  132.638314  113.285499  25.374702  -19.215967  7.923547  2.7363  9.418662  94.121519  31.856595  41.290521  -59.973664  17.233325  -85.066379  82.235058  21.227539  17.618667  23.07959  4.481356  -5.712619  17.344517  3.150888  -4.459492  
0.0  101.685394  0.0  2.378724  -17.180866  -99.924817  22.490522  -15.854716  -0.154767  -0.425172  8.889356  37.137465  9.483463  5.547705  3.447215  -4.640449  9.283282  -11.217867  7.485557  13.427692  27.454227  11.761579  5.426485  -3.273073  -5.053306  -0.483809  2.513963  -13.846459  -0.790877  6.938342  -13.846459  -0.790877  6.938342  12.94814  41.983932  8.168616  -111.182898  53.188704  -91.462095  -10.738229  -21.428759  132.123363  112.97442  25.233881  -18.559167  7.716307  3.229537  9.036064  94.471604  31.073205  41.590035  -60.161426  17.554138  -85.304137  83.427484  21.540374  15.905282  22.774443  4.158262  -6.062086  17.116541  2.897831  -4.707634  
0.0  101.685394  0.0  2.303035  -12.872237  -98.698232  21.236187  -15.485893  -1.944816  -2.192192  9.762915  37.085527  9.073133  5.408319  3.260064  -7.515252  9.82506  -11.191217  7.184458  13.636933  26.744709  10.986815  5.56602  -3.455144  -5.494212  -0.486747  2.280825  -15.049134  -0.805262  6.307976  -15.049135  -0.805262  6.307975  13.003857  42.581959  7.655459  -112.093775  54.250114  -89.897535  -10.312805  -20.790353  131.214777  112.469701  25.175559  -18.223312  7.843184  3.978911  8.489675  94.118859  29.712184  41.400851  -60.364813  17.821937  -85.641596  84.470631  22.03262  13.879839  22.46637  3.81022  -6.309912  16.885008  2.630163  -4.87886  
